<svg width="40" height="40" viewBox="0 0 40 40" fill="none" xmlns="http://www.w3.org/2000/svg">
<path d="M25.625 11.25C24.5554 11.2493 23.4906 11.3928 22.4593 11.6765C22.0523 11.0123 21.5577 10.4058 20.989 9.87339L22.475 7.75308C22.5692 7.61858 22.6359 7.46684 22.6715 7.30654C22.707 7.14623 22.7106 6.98049 22.6821 6.81879C22.6536 6.65708 22.5935 6.50258 22.5053 6.36409C22.4171 6.22561 22.3024 6.10586 22.1679 6.01167C22.0334 5.91749 21.8817 5.85072 21.7214 5.81518C21.5611 5.77964 21.3954 5.77602 21.2337 5.80453C21.0719 5.83304 20.9174 5.89312 20.779 5.98135C20.6405 6.06957 20.5207 6.1842 20.4265 6.31871L18.9406 8.43746C17.7187 7.82048 16.3688 7.49935 15 7.49996C14.9093 7.49996 14.8187 7.49996 14.7281 7.49996L14.2765 4.95464C14.2528 4.78879 14.196 4.6294 14.1095 4.48593C14.023 4.34247 13.9085 4.21786 13.7729 4.11951C13.6373 4.02116 13.4832 3.95108 13.32 3.91344C13.1567 3.87579 12.9876 3.87135 12.8226 3.90036C12.6576 3.92938 12.5001 3.99128 12.3595 4.08236C12.2189 4.17345 12.098 4.29188 12.0041 4.4306C11.9101 4.56932 11.8451 4.72551 11.8127 4.88989C11.7803 5.05426 11.7813 5.22347 11.8156 5.38746L12.2656 7.94058C10.8793 8.39911 9.62946 9.19669 8.62966 10.2609L6.50153 8.77183C6.36714 8.67533 6.21492 8.60648 6.05371 8.56925C5.89251 8.53203 5.72551 8.52718 5.56241 8.55498C5.39932 8.58279 5.24336 8.6427 5.10359 8.73123C4.96382 8.81977 4.84302 8.93517 4.74819 9.07075C4.65336 9.20632 4.58638 9.35938 4.55115 9.52103C4.51592 9.68269 4.51313 9.84973 4.54295 10.0125C4.57277 10.1752 4.63459 10.3304 4.72485 10.4691C4.8151 10.6077 4.93198 10.7271 5.06872 10.8203L7.18747 12.3078C6.56832 13.5295 6.24706 14.8803 6.24997 16.25C6.24997 16.339 6.24997 16.4296 6.24997 16.5187L3.70466 16.9687C3.39658 17.0227 3.11992 17.1902 2.9293 17.4382C2.73869 17.6861 2.64797 17.9966 2.67505 18.3082C2.70212 18.6198 2.84504 18.9099 3.07557 19.1213C3.30611 19.3327 3.60751 19.4499 3.92028 19.45C3.99308 19.4499 4.06574 19.4436 4.13747 19.4312L6.68747 18.9812C6.91152 19.6634 7.21906 20.3152 7.6031 20.9218C6.40746 22.0324 5.57393 23.4773 5.21107 25.0682C4.8482 26.6592 4.97281 28.3226 5.56868 29.8418C6.16454 31.3609 7.20404 32.6655 8.5518 33.5855C9.89956 34.5055 11.4931 34.9984 13.125 35H25.625C28.7744 35 31.7949 33.7488 34.0219 31.5218C36.2489 29.2949 37.5 26.2744 37.5 23.125C37.5 19.9755 36.2489 16.9551 34.0219 14.7281C31.7949 12.5011 28.7744 11.25 25.625 11.25ZM8.74997 16.25C8.75072 14.9263 9.17169 13.637 9.95223 12.568C10.7328 11.499 11.8325 10.7053 13.0931 10.3015C14.3537 9.89763 15.7099 9.90442 16.9663 10.3209C18.2228 10.7373 19.3146 11.5419 20.0843 12.6187C17.5345 13.9606 15.5572 16.181 14.5187 18.8687C12.8755 18.5851 11.1848 18.8125 9.67497 19.5203C9.07048 18.5365 8.75031 17.4046 8.74997 16.25ZM25.625 32.5H13.125C12.3556 32.4985 11.5948 32.3393 10.8894 32.0321C10.1841 31.725 9.54921 31.2764 9.02414 30.7141C8.49906 30.1518 8.0949 29.4878 7.83667 28.7631C7.57843 28.0384 7.4716 27.2684 7.52278 26.5007C7.57397 25.7331 7.78207 24.9841 8.13424 24.3001C8.4864 23.6161 8.97513 23.0116 9.57021 22.524C10.1653 22.0364 10.8541 21.6761 11.594 21.4653C12.3339 21.2545 13.1091 21.1977 13.8718 21.2984C13.814 21.6687 13.7734 22.0468 13.7515 22.4281C13.7325 22.7596 13.8459 23.0851 14.0668 23.333C14.2878 23.5809 14.5981 23.7309 14.9297 23.75C15.2612 23.769 15.5867 23.6556 15.8346 23.4347C16.0825 23.2137 16.2325 22.9034 16.2515 22.5718C16.2866 21.9484 16.385 21.3301 16.5453 20.7265C16.5453 20.7015 16.5593 20.6765 16.564 20.6515C17.0235 18.9632 17.9458 17.4369 19.2268 16.245C20.5079 15.0531 22.0967 14.2431 23.8137 13.9065C25.5308 13.5699 27.3078 13.72 28.9441 14.34C30.5803 14.9599 32.0107 16.025 33.0736 17.4149C34.1365 18.8048 34.7897 20.4642 34.9593 22.2057C35.1289 23.9473 34.8083 25.7015 34.0336 27.2704C33.2589 28.8394 32.061 30.1604 30.5752 31.0845C29.0893 32.0086 27.3747 32.4989 25.625 32.5Z" fill="black" fill-opacity="0.7"/>
</svg>
