<svg width="40" height="40" viewBox="0 0 40 40" fill="none" xmlns="http://www.w3.org/2000/svg">
<path d="M37.9906 20.5531L32.9906 8.05313C32.8252 7.64073 32.5188 7.30047 32.1258 7.093C31.7329 6.88553 31.2791 6.82433 30.8453 6.92031L21.875 8.90625V6.25C21.875 5.75272 21.6774 5.27581 21.3258 4.92417C20.9742 4.57254 20.4973 4.375 20 4.375C19.5027 4.375 19.0258 4.57254 18.6742 4.92417C18.3225 5.27581 18.125 5.75272 18.125 6.25V9.74531L8.34373 11.9203C8.04594 11.9864 7.76877 12.1241 7.53624 12.3215C7.30371 12.5189 7.12286 12.77 7.00935 13.0531L2.00935 25.5406C1.91903 25.7661 1.87339 26.0071 1.87498 26.25C1.87498 28.1453 2.84373 29.7547 4.60154 30.7812C5.86965 31.4907 7.29694 31.867 8.74998 31.875C10.203 31.867 11.6303 31.4907 12.8984 30.7812C14.6562 29.7547 15.625 28.1453 15.625 26.25C15.625 26.0113 15.5794 25.7747 15.4906 25.5531L11.3094 15.1016L18.125 13.5938V31.875H16.25C15.7527 31.875 15.2758 32.0725 14.9242 32.4242C14.5725 32.7758 14.375 33.2527 14.375 33.75C14.375 34.2473 14.5725 34.7242 14.9242 35.0758C15.2758 35.4275 15.7527 35.625 16.25 35.625H23.75C24.2473 35.625 24.7242 35.4275 25.0758 35.0758C25.4274 34.7242 25.625 34.2473 25.625 33.75C25.625 33.2527 25.4274 32.7758 25.0758 32.4242C24.7242 32.0725 24.2473 31.875 23.75 31.875H21.875V12.7547L28.1906 11.3484L24.5094 20.5516C24.4204 20.7737 24.3748 21.0107 24.375 21.25C24.375 23.1453 25.3437 24.7547 27.1015 25.7812C28.3663 26.4992 29.7957 26.8766 31.25 26.8766C32.7043 26.8766 34.1337 26.4992 35.3984 25.7812C37.1562 24.7547 38.125 23.1453 38.125 21.25C38.125 21.0113 38.0793 20.7747 37.9906 20.5531ZM8.74998 28.125C8.17029 28.125 5.93748 27.8328 5.65467 26.5344L8.74998 18.7984L11.8453 26.5344C11.5625 27.8328 9.32967 28.125 8.74998 28.125ZM31.25 23.125C30.6703 23.125 28.4375 22.8328 28.1547 21.5344L31.25 13.7984L34.3453 21.5344C34.0625 22.8328 31.8297 23.125 31.25 23.125Z" fill="black" fill-opacity="0.7"/>
</svg>
