<svg width="40" height="40" viewBox="0 0 40 40" fill="none" xmlns="http://www.w3.org/2000/svg">
<path d="M34.9641 23.4515C35.0033 23.611 35.0107 23.7766 34.9859 23.9389C34.9611 24.1012 34.9046 24.257 34.8196 24.3974C34.7345 24.5379 34.6227 24.6602 34.4904 24.7574C34.3581 24.8547 34.2079 24.9249 34.0484 24.964L30.1984 25.9015L31.2078 29.6687C31.2503 29.8273 31.2612 29.9928 31.2398 30.1556C31.2183 30.3184 31.165 30.4754 31.0829 30.6176C31.0008 30.7598 30.8914 30.8844 30.7611 30.9843C30.6308 31.0843 30.4821 31.1575 30.3234 31.2C30.2182 31.2303 30.1095 31.2471 30 31.25C29.725 31.2497 29.4578 31.1588 29.2397 30.9913C29.0217 30.8238 28.8649 30.589 28.7938 30.3234L27.5875 25.8234L21.25 22.1656V29.4828L24.6344 32.8656C24.7505 32.9817 24.8426 33.1196 24.9055 33.2713C24.9683 33.4231 25.0007 33.5857 25.0007 33.75C25.0007 33.9142 24.9683 34.0768 24.9055 34.2286C24.8426 34.3803 24.7505 34.5182 24.6344 34.6343C24.5182 34.7505 24.3804 34.8426 24.2286 34.9055C24.0769 34.9683 23.9142 35.0007 23.75 35.0007C23.5858 35.0007 23.4231 34.9683 23.2714 34.9055C23.1196 34.8426 22.9818 34.7505 22.8656 34.6343L20 31.7671L17.1344 34.6343C17.0182 34.7505 16.8804 34.8426 16.7286 34.9055C16.5769 34.9683 16.4142 35.0007 16.25 35.0007C16.0858 35.0007 15.9231 34.9683 15.7714 34.9055C15.6196 34.8426 15.4818 34.7505 15.3656 34.6343C15.2495 34.5182 15.1574 34.3803 15.0945 34.2286C15.0317 34.0768 14.9993 33.9142 14.9993 33.75C14.9993 33.5857 15.0317 33.4231 15.0945 33.2713C15.1574 33.1196 15.2495 32.9817 15.3656 32.8656L18.75 29.4828V22.1656L12.4141 25.8234L11.2078 30.3234C11.1366 30.5893 10.9796 30.8242 10.7612 30.9917C10.5428 31.1593 10.2752 31.25 10 31.25C9.89031 31.2498 9.7811 31.2356 9.675 31.2078C9.51636 31.1653 9.36764 31.0921 9.23733 30.9921C9.10702 30.8922 8.99768 30.7676 8.91555 30.6254C8.83342 30.4832 8.78012 30.3262 8.75868 30.1634C8.73725 30.0006 8.7481 29.8351 8.79063 29.6765L9.8 25.9093L5.95 24.9718C5.62801 24.8927 5.35065 24.6889 5.17894 24.4052C5.00723 24.1216 4.95523 23.7813 5.03438 23.4593C5.11353 23.1373 5.31735 22.86 5.60099 22.6883C5.88464 22.5166 6.22489 22.4646 6.54688 22.5437L11.1484 23.6734L17.5 20L11.15 16.3343L6.54844 17.464C6.45081 17.4882 6.35058 17.5003 6.25 17.5C5.94436 17.5002 5.64923 17.3884 5.42042 17.1858C5.1916 16.9831 5.04496 16.7037 5.00821 16.4003C4.97146 16.0968 5.04715 15.7905 5.22098 15.5391C5.3948 15.2877 5.65471 15.1087 5.95156 15.0359L9.80156 14.0984L8.79219 10.3234C8.70641 10.0031 8.75139 9.66178 8.91724 9.37461C9.0831 9.08745 9.35623 8.87793 9.67656 8.79215C9.9969 8.70637 10.3382 8.75135 10.6253 8.91721C10.9125 9.08306 11.122 9.35619 11.2078 9.67652L12.4141 14.1765L18.75 17.8343V10.5171L15.3656 7.13434C15.1311 6.89979 14.9993 6.58167 14.9993 6.24996C14.9993 6.08572 15.0317 5.92308 15.0945 5.77134C15.1574 5.6196 15.2495 5.48173 15.3656 5.36559C15.4818 5.24945 15.6196 5.15732 15.7714 5.09447C15.9231 5.03162 16.0858 4.99927 16.25 4.99927C16.5817 4.99927 16.8998 5.13104 17.1344 5.36559L20 8.23277L22.8656 5.36559C23.1002 5.13104 23.4183 4.99927 23.75 4.99927C24.0817 4.99927 24.3998 5.13104 24.6344 5.36559C24.8689 5.60014 25.0007 5.91826 25.0007 6.24996C25.0007 6.58167 24.8689 6.89979 24.6344 7.13434L21.25 10.5171V17.8343L27.5859 14.1765L28.7922 9.67652C28.878 9.35619 29.0875 9.08306 29.3747 8.91721C29.6618 8.75135 30.0031 8.70637 30.3234 8.79215C30.6438 8.87793 30.9169 9.08745 31.0828 9.37461C31.2486 9.66178 31.2936 10.0031 31.2078 10.3234L30.1984 14.0906L34.0484 15.0281C34.3536 15.0933 34.6233 15.2702 34.8046 15.5241C34.986 15.778 35.0658 16.0906 35.0284 16.4003C34.991 16.7101 34.8391 16.9947 34.6025 17.1982C34.366 17.4016 34.0619 17.5093 33.75 17.5C33.6494 17.5003 33.5492 17.4882 33.4516 17.464L28.85 16.3343L22.5 20L28.85 23.6656L33.4516 22.5359C33.611 22.4967 33.7766 22.4893 33.9389 22.514C34.1012 22.5388 34.257 22.5954 34.3975 22.6804C34.5379 22.7654 34.6603 22.8773 34.7575 23.0096C34.8547 23.1419 34.9249 23.2921 34.9641 23.4515Z" fill="black" fill-opacity="0.7"/>
</svg>
