<svg width="40" height="40" viewBox="0 0 40 40" fill="none" xmlns="http://www.w3.org/2000/svg">
<path d="M28.125 23.5453V8.75C28.125 6.59512 27.269 4.52849 25.7452 3.00476C24.2215 1.48102 22.1549 0.625 20 0.625C17.8451 0.625 15.7785 1.48102 14.2548 3.00476C12.731 4.52849 11.875 6.59512 11.875 8.75V23.5453C10.8028 25.0396 10.1635 26.8007 10.0274 28.6348C9.89131 30.469 10.2636 32.3051 11.1035 33.9413C11.9433 35.5775 13.2181 36.9505 14.7877 37.9091C16.3573 38.8677 18.1608 39.3749 20 39.3749C21.8392 39.3749 23.6427 38.8677 25.2123 37.9091C26.7819 36.9505 28.0567 35.5775 28.8965 33.9413C29.7364 32.3051 30.1087 30.469 29.9726 28.6348C29.8365 26.8007 29.1972 25.0396 28.125 23.5453ZM20 35.625C18.8158 35.625 17.656 35.2887 16.6556 34.655C15.6552 34.0214 14.8554 33.1166 14.3493 32.046C13.8432 30.9754 13.6517 29.7831 13.7971 28.6078C13.9424 27.4326 14.4187 26.3229 15.1703 25.4078C15.4635 25.0676 15.6249 24.6335 15.625 24.1844V8.75C15.625 7.58968 16.0859 6.47688 16.9064 5.65641C17.7269 4.83594 18.8397 4.375 20 4.375C21.1603 4.375 22.2731 4.83594 23.0936 5.65641C23.9141 6.47688 24.375 7.58968 24.375 8.75V24.1828C24.3746 24.6211 24.5277 25.0457 24.8078 25.3828C25.5659 26.296 26.0483 27.4061 26.1986 28.5834C26.349 29.7607 26.161 30.9564 25.6567 32.0308C25.1523 33.1051 24.3525 34.0137 23.3508 34.6502C22.3491 35.2867 21.1868 35.6248 20 35.625ZM23.75 29.375C23.7501 30.0333 23.577 30.68 23.2479 31.2502C22.9189 31.8203 22.4455 32.2938 21.8755 32.623C21.3054 32.9523 20.6587 33.1256 20.0005 33.1257C19.3422 33.1258 18.6954 32.9526 18.1253 32.6235C17.5552 32.2944 17.0817 31.821 16.7525 31.251C16.4234 30.6809 16.25 30.0342 16.25 29.3759C16.25 28.7176 16.4232 28.0709 16.7524 27.5008C17.0815 26.9307 17.5549 26.4573 18.125 26.1281V14.375C18.125 13.8777 18.3225 13.4008 18.6742 13.0492C19.0258 12.6975 19.5027 12.5 20 12.5C20.4973 12.5 20.9742 12.6975 21.3258 13.0492C21.6775 13.4008 21.875 13.8777 21.875 14.375V26.1281C22.445 26.4572 22.9183 26.9305 23.2474 27.5004C23.5765 28.0703 23.7499 28.7169 23.75 29.375Z" fill="black" fill-opacity="0.7"/>
</svg>
